<?xml version="1.0" standalone="no"?>
<!DOCTYPE svg PUBLIC "-//W3C//DTD SVG 20010904//EN"
 "http://www.w3.org/TR/2001/REC-SVG-20010904/DTD/svg10.dtd">
<svg version="1.0" xmlns="http://www.w3.org/2000/svg"
 width="512.000000pt" height="512.000000pt" viewBox="0 0 512.000000 512.000000"
 preserveAspectRatio="xMidYMid meet">

<g transform="translate(0.000000,512.000000) scale(0.100000,-0.100000)"
fill="#000000" stroke="none">
<path d="M95 5106 c-41 -18 -83 -69 -90 -109 -3 -18 -4 -580 -3 -1249 3 -1211
3 -1217 24 -1244 11 -15 33 -37 48 -48 27 -21 39 -21 633 -24 385 -1 626 1
662 8 124 23 250 111 301 209 12 24 27 41 33 38 7 -3 127 -83 267 -178 298
-203 417 -311 518 -467 33 -52 145 -273 253 -500 106 -224 199 -417 207 -429
7 -12 34 -32 59 -44 40 -19 50 -20 99 -11 363 73 628 441 584 811 -6 47 -37
196 -68 331 l-58 245 595 5 c668 6 644 4 760 81 73 48 112 93 152 174 82 166
51 368 -76 496 l-45 46 24 53 c14 29 30 84 37 121 23 131 -24 279 -119 377
l-48 49 23 48 c79 173 39 374 -102 510 l-64 63 18 53 c89 254 -60 529 -320
588 -60 14 -1364 14 -1500 1 -362 -37 -701 -161 -1031 -379 l-138 -90 0 39 c0
205 -148 387 -348 429 -82 17 -1247 15 -1287 -3z m1263 -306 c18 -11 41 -34
52 -52 20 -32 20 -53 20 -974 l0 -941 -23 -34 c-47 -70 -34 -69 -599 -69
l-508 0 0 1045 0 1045 513 0 c493 0 513 -1 545 -20z m3008 -1 c82 -39 105
-141 49 -215 -27 -35 -58 -50 -130 -59 -62 -9 -120 -61 -130 -118 -10 -51 17
-120 58 -149 28 -20 48 -24 164 -28 112 -4 136 -8 159 -26 67 -50 89 -121 57
-184 -20 -39 -75 -80 -107 -80 -125 0 -204 -108 -157 -214 28 -65 67 -86 161
-86 99 -1 146 -12 181 -46 93 -89 38 -233 -95 -249 -73 -9 -113 -36 -137 -91
-27 -60 -19 -112 25 -158 38 -41 87 -56 182 -56 57 0 78 -4 105 -23 90 -60 88
-172 -5 -241 -27 -21 -38 -21 -919 -26 l-892 -5 -32 -23 c-41 -29 -68 -98 -58
-149 8 -46 69 -107 115 -117 18 -3 92 -6 164 -6 l131 0 69 -297 c75 -326 83
-397 51 -494 -32 -99 -91 -180 -172 -236 -29 -20 -55 -34 -57 -32 -2 2 -63
130 -136 283 -224 476 -263 544 -395 696 -105 122 -202 199 -552 438 l-333
226 0 622 0 621 228 151 c316 210 502 295 767 351 168 36 227 38 924 40 662 1
675 1 717 -20z"/>
<path d="M917 3326 c-70 -25 -97 -66 -97 -146 0 -45 4 -55 38 -92 33 -35 45
-41 92 -46 96 -9 160 49 160 144 0 106 -95 175 -193 140z"/>
<path d="M2435 921 c-16 -10 -85 -74 -151 -142 -138 -140 -151 -167 -118 -247
27 -69 105 -106 181 -87 40 10 289 258 304 303 22 66 -10 146 -71 177 -40 21
-109 19 -145 -4z"/>
<path d="M3558 915 c-24 -16 -42 -40 -54 -70 -29 -77 -13 -109 130 -253 66
-68 133 -130 148 -138 83 -44 197 10 214 101 13 69 -2 93 -135 228 -69 71
-138 135 -153 143 -43 22 -108 18 -150 -11z"/>
<path d="M3002 571 c-66 -42 -72 -64 -72 -277 0 -182 1 -193 23 -225 61 -91
181 -89 251 5 19 25 21 44 24 195 4 193 -3 233 -52 281 -46 43 -122 53 -174
21z"/>
</g>
</svg>
